#!OML:ASF E:\inclinewalkrobotboard\Project 1\Capture day 1\Session 1\subject1.ASF
:FULLY-SPECIFIED
:DEGREES
114
root 8.54859 16.5299 22.1607 -165.315 4.11094 -178.823
lowerback -6.69351 0.458836 -6.94285
upperback 0.804053 1.11565 1.66835
thorax 4.44201 0.361045 5.77783
lowerneck -7.02053 -2.37862 -2.63422
upperneck 27.8404 -1.9273 5.31491
head 10.0618 0.285913 2.28323
rclavicle -6.36111e-015 1.87106e-014
rhumerus -45.7045 -24.4385 -70.0126
rradius 34.6232
rwrist 11.2609
rhand -14.9061 -34.7819
rfingers 7.12502
rthumb 11.2553 -64.4599
lclavicle -6.36111e-015 1.87106e-014
lhumerus -28.6585 -12.2808 93.566
lradius 31.9718
lwrist -16.6919
lhand -36.0105 -30.0914
lfingers 7.12502
lthumb -9.11992 -0.308605
rfemur -23.7062 6.07381 19.8188
rtibia 34.2425
rfoot -24.4493 -7.33848
rtoes -28.0637
lfemur -14.1643 -8.16593 -20.6078
ltibia 16.4084
lfoot -21.0602 -0.309415
ltoes -56.9813
115
root 8.55322 16.538 22.0819 -165.138 4.06064 -178.679
lowerback -6.55794 0.32922 -6.83722
upperback 0.771875 0.920778 1.7444
thorax 4.36093 0.270421 5.7756
lowerneck -7.08151 -2.32882 -2.7838
upperneck 27.6604 -1.92032 5.49094
head 10.0104 0.27414 2.36519
rclavicle -7.34882e-015 -2.43511e-015
rhumerus -46.1342 -24.4782 -69.5504
rradius 34.4749
rwrist 11.3078
rhand -15.113 -35.0132
rfingers 7.12502
rthumb 11.0558 -64.702
lclavicle -7.34882e-015 -2.43511e-015
lhumerus -27.9323 -13.4523 94.0256
lradius 32.6395
lwrist -16.6607
lhand -35.7814 -29.4552
lfingers 7.12502
lthumb -8.89884 0.337145
rfemur -24.3282 5.85671 20.0021
rtibia 34.5821
rfoot -24.346 -6.76633
rtoes -28.6695
lfemur -14.0588 -8.27149 -20.4456
ltibia 16.4785
lfoot -21.3526 -0.158461
ltoes -57.331
116
root 8.56289 16.542 21.9966 -165.03 4.06763 -178.644
lowerback -6.41471 0.190964 -6.84615
upperback 0.767552 0.725245 1.77547
thorax 4.30436 0.17498 5.79179
lowerneck -7.74451 -2.18564 -2.29868
upperneck 28.0911 -1.66083 4.91793
head 10.2762 0.389449 2.1169
rclavicle -1.04486e-014 2.30093e-014
rhumerus -46.5235 -24.4582 -69.1268
rradius 34.2579
rwrist 11.3605
rhand -14.9193 -34.8889
rfingers 7.12502
rthumb 11.2425 -64.5676
lclavicle -1.04486e-014 2.30093e-014
lhumerus -27.2641 -14.5526 94.3695
lradius 33.4055
lwrist -16.6809
lhand -35.9795 -28.7321
lfingers 7.12502
lthumb -9.08997 1.05199
rfemur -24.7646 5.60865 20.0994
rtibia 34.7864
rfoot -24.1246 -6.32445
rtoes -29.0997
lfemur -13.8771 -8.35464 -20.4211
ltibia 16.6105
lfoot -21.6498 -0.0225981
ltoes -57.5688
117
root 8.57626 16.5404 21.9066 -164.951 4.23513 -178.653
lowerback -6.31347 0.075178 -6.93749
upperback 0.755297 0.569432 1.79371
thorax 4.25714 0.0972745 5.84642
lowerneck -7.77386 -2.00987 -2.18966
upperneck 27.7941 -1.47864 4.8758
head 10.1626 0.453235 2.09122
rclavicle -5.26779e-015 -9.69075e-015
rhumerus -46.9813 -24.3628 -68.633
rradius 34.1039
rwrist 11.6946
rhand -12.7438 -34.8938
rfingers 7.12502
rthumb 13.3402 -64.4468
lclavicle -5.26779e-015 -9.69075e-015
lhumerus -26.6266 -15.6149 94.6008
lradius 34.2622
lwrist -16.4823
lhand -35.9647 -27.9714
lfingers 7.12502
lthumb -9.07576 1.8133
rfemur -25.1559 5.32292 20.1621
rtibia 35.0856
rfoot -23.8999 -6.09504
rtoes -29.0468
lfemur -13.3942 -8.35794 -20.4642
ltibia 16.2496
lfoot -21.8057 0.152839
ltoes -57.8425
118
root 8.59411 16.5365 21.8137 -164.861 4.49854 -178.535
lowerback -6.21783 0.0125467 -6.93227
upperback 0.747599 0.476936 1.83135
thorax 4.20885 0.0531499 5.87299
lowerneck -7.36359 -1.92844 -2.49048
upperneck 27.1653 -1.46695 5.22326
head 9.85698 0.427492 2.24572
rclavicle 8.52289e-015 1.68967e-015
rhumerus -47.4303 -24.2683 -68.1533
rradius 34.0376
rwrist 11.9598
rhand -13.0659 -34.9256
rfingers 7.12502
rthumb 13.0297 -64.4986
lclavicle 8.52289e-015 1.68967e-015
lhumerus -25.9113 -16.8751 94.6956
lradius 35.2092
lwrist -15.9592
lhand -35.3772 -27.1656
lfingers 7.12502
lthumb -8.50875 2.64293
rfemur -25.5435 4.99588 20.4032
rtibia 35.5595
rfoot -23.6062 -5.84244
rtoes -28.1779
lfemur -12.7972 -8.2906 -20.3484
ltibia 15.6774
lfoot -21.9126 0.352645
ltoes -58.1298
119
root 8.61789 16.5314 21.7187 -164.78 4.74075 -178.376
lowerback -6.02712 -0.069832 -6.92687
upperback 0.704644 0.349541 1.90625
thorax 4.07511 -0.00411055 5.93434
lowerneck -6.98015 -1.78619 -2.9139
upperneck 26.5691 -1.3701 5.68791
head 9.56896 0.444336 2.47116
rclavicle -1.4561e-014 -3.18055e-014
rhumerus -47.8012 -23.9833 -67.7791
rradius 34.0394
rwrist 11.9074
rhand -12.6894 -34.8601
rfingers 7.12502
rthumb 13.3926 -64.4097
lclavicle -1.4561e-014 -3.18055e-014
lhumerus -25.2093 -18.0878 94.6722
lradius 36.1264
lwrist -15.4733
lhand -34.9468 -26.4716
lfingers 7.12502
lthumb -8.09339 3.3534
rfemur -25.8738 4.61856 20.7427
rtibia 36.1064
rfoot -23.1394 -5.65189
rtoes -28.1302
lfemur -12.3659 -8.17155 -20.1505
ltibia 15.486
lfoot -22.1487 0.460749
ltoes -58.3512
120
root 8.64232 16.5213 21.6075 -164.832 5.16936 -178.342
lowerback -5.90759 -0.138513 -7.01862
upperback 0.696998 0.255071 1.92065
thorax 4.01407 -0.0508383 5.99185
lowerneck -7.29126 -1.58208 -2.73541
upperneck 26.7425 -1.06091 5.43454
head 9.67322 0.577875 2.38794
rclavicle -4.34841e-015 -5.26779e-015
rhumerus -48.12 -23.629 -67.4373
rradius 34.0622
rwrist 12.0647
rhand -12.4141 -34.6549
rfingers 7.12502
rthumb 13.6579 -64.1868
lclavicle -4.34841e-015 -5.26779e-015
lhumerus -24.5384 -19.1918 94.486
lradius 36.9045
lwrist -15.0885
lhand -34.8246 -25.8445
lfingers 7.12502
lthumb -7.97552 3.985
rfemur -25.9843 4.29637 20.9157
rtibia 36.7419
rfoot -22.6796 -5.26014
rtoes -28.5015
lfemur -11.7304 -8.00307 -20.184
ltibia 15.3825
lfoot -22.5198 0.62931
ltoes -58.4684
121
root 8.66932 16.5067 21.4895 -164.887 5.5924 -178.389
lowerback -5.95505 -0.248124 -7.15337
upperback 0.735946 0.122891 1.90311
thorax 4.10284 -0.124642 6.03895
lowerneck -7.25054 -1.37012 -2.68994
upperneck 26.5623 -0.781118 5.34935
head 9.58651 0.686516 2.37094
rclavicle -1.37907e-014 -4.96962e-016
rhumerus -48.2703 -23.2355 -67.1834
rradius 34.1141
rwrist 12.4093
rhand -12.5451 -34.4013
rfingers 7.12502
rthumb 13.5317 -63.9416
lclavicle -1.37907e-014 -4.96962e-016
lhumerus -23.7488 -20.235 94.0555
lradius 37.5307
lwrist -14.7179
lhand -34.3784 -25.6718
lfingers 7.12502
lthumb -7.54479 4.17361
rfemur -26.0025 4.00105 20.9756
rtibia 37.4685
rfoot -22.2941 -4.42654
rtoes -26.7567
lfemur -11.2695 -7.86971 -20.3263
ltibia 15.6744
lfoot -23.0637 0.743414
ltoes -58.5661
122
root 8.69923 16.4882 21.364 -164.872 5.99554 -178.345
lowerback -5.94763 -0.340342 -7.13771
upperback 0.649862 -0.00316622 1.90025
thorax 4.02808 -0.180889 6.0145
lowerneck -6.98758 -1.1675 -2.76696
upperneck 26.318 -0.496938 5.31827
head 9.43547 0.79326 2.39133
rclavicle -5.2181e-015 -9.93923e-016
rhumerus -48.4788 -22.5592 -66.998
rradius 34.3253
rwrist 12.1991
rhand -12.4103 -34.4346
rfingers 7.12502
rthumb 13.6615 -63.9662
lclavicle -5.2181e-015 -9.93923e-016
lhumerus -23.189 -21.2247 93.4961
lradius 38.204
lwrist -14.3744
lhand -33.0142 -26.4809
lfingers 7.12502
lthumb -6.22794 3.40751
rfemur -25.9279 3.8078 21.1142
rtibia 38.0246
rfoot -21.4821 -3.93295
rtoes -25.7414
lfemur -11.1674 -7.81594 -20.3585
ltibia 16.5607
lfoot -23.78 0.888596
ltoes -58.757
123
root 8.73573 16.4649 21.2305 -164.83 6.34868 -178.327
lowerback -6.0522 -0.448468 -7.12346
upperback 0.571907 -0.141472 1.89063
thorax 4.02704 -0.246324 5.98338
lowerneck -6.99618 -0.982349 -2.85945
upperneck 26.3663 -0.194527 5.19805
head 9.44039 0.910197 2.39602
rclavicle -1.63997e-014 5.56597e-015
rhumerus -48.5796 -21.8213 -66.9249
rradius 34.7094
rwrist 11.641
rhand -11.9153 -34.8485
rfingers 7.12502
rthumb 14.1386 -64.3475
lclavicle -1.63997e-014 5.56597e-015
lhumerus -22.7461 -22.1023 92.7681
lradius 38.9298
lwrist -14.1228
lhand -33.7592 -25.5615
lfingers 7.12502
lthumb -6.94711 4.30447
rfemur -25.681 3.55144 21.2512
rtibia 38.2855
rfoot -20.1605 -4.19013
rtoes -26.7914
lfemur -11.1995 -7.66195 -20.3879
ltibia 17.6998
lfoot -24.3463 0.943822
ltoes -58.898
124
root 8.77571 16.4391 21.0931 -164.803 6.58239 -178.289
lowerback -6.2126 -0.599239 -7.04417
upperback 0.504768 -0.337331 1.88847
thorax 4.07721 -0.34127 5.91727
lowerneck -7.68532 -0.72628 -2.34041
upperneck 27.0971 0.312854 4.4423
head 9.81588 1.13892 2.12173
rclavicle -7.00716e-015 -3.57812e-015
rhumerus -48.6507 -21.053 -66.9644
rradius 35.2108
rwrist 11.3741
rhand -11.666 -35.0299
rfingers 7.12502
rthumb 14.3788 -64.5119
lclavicle -7.00716e-015 -3.57812e-015
lhumerus -22.3651 -22.7661 91.8694
lradius 39.5523
lwrist -13.8709
lhand -34.1099 -25.0909
lfingers 7.12502
lthumb -7.2856 4.7637
rfemur -25.229 3.11398 21.4294
rtibia 38.3364
rfoot -19.1638 -4.33482
rtoes -27.411
lfemur -11.3775 -7.50569 -20.3751
ltibia 19.1845
lfoot -24.7833 0.948883
ltoes -58.9205
125
root 8.81505 16.4113 20.9554 -164.782 6.74692 -178.05
lowerback -6.38807 -0.705282 -6.69672
upperback 0.492454 -0.493898 1.93111
thorax 4.18392 -0.414905 5.74862
lowerneck -7.47193 -0.526921 -2.3852
upperneck 26.8956 0.630571 4.24992
head 9.69051 1.24955 2.08502
rclavicle 1.0635e-014 -5.96354e-016
rhumerus -48.5636 -20.2755 -67.1228
rradius 35.7418
rwrist 11.1114
rhand -11.8262 -34.9791
rfingers 7.12502
rthumb 14.2245 -64.472
lclavicle 1.0635e-014 -5.96354e-016
lhumerus -21.8227 -23.3005 90.8107
lradius 40.006
lwrist -13.4377
lhand -33.9289 -24.7314
lfingers 7.12502
lthumb -7.1109 5.12913
rfemur -24.6174 2.6754 21.8152
rtibia 38.2376
rfoot -18.9897 -4.05262
rtoes -28.5422
lfemur -11.9112 -7.52243 -20.1406
ltibia 21.3356
lfoot -25.2095 1.08393
ltoes -59.1105
126
root 8.85713 16.3794 20.8177 -164.769 6.99605 -177.753
lowerback -6.44742 -0.75297 -6.31204
upperback 0.47537 -0.585667 2.01774
thorax 4.20906 -0.452405 5.6113
lowerneck -7.09962 -0.371161 -2.82088
upperneck 26.4238 0.853896 4.318
head 9.43942 1.29489 2.1858
rclavicle -6.5102e-015 8.74653e-015
rhumerus -48.2226 -19.5015 -67.2845
rradius 36.1041
rwrist 10.8572
rhand -12.0517 -34.9182
rfingers 7.12502
rthumb 14.0072 -64.4262
lclavicle -6.5102e-015 8.74653e-015
lhumerus -21.2312 -23.6019 89.672
lradius 40.2752
lwrist -13.0392
lhand -33.5254 -24.5249
lfingers 7.12502
lthumb -6.7214 5.34844
rfemur -23.9454 2.30773 22.2746
rtibia 38.1402
rfoot -19.2609 -3.66739
rtoes -30.2468
lfemur -12.7926 -7.54907 -19.8471
ltibia 24.1489
lfoot -25.4958 1.29086
ltoes -59.5836
127
root 8.90292 16.3441 20.6775 -164.917 7.30598 -177.572
lowerback -6.28299 -0.750198 -6.07316
upperback 0.451367 -0.612518 2.08975
thorax 4.09247 -0.45597 5.54838
lowerneck -7.3009 -0.283741 -2.93012
upperneck 26.6229 1.10226 3.92305
head 9.54274 1.35906 2.09972
rclavicle 3.01656e-014 6.55989e-015
rhumerus -47.8314 -18.7019 -67.4272
rradius 36.4057
rwrist 10.9815
rhand -12.6189 -34.7872
rfingers 7.12502
rthumb 13.4605 -64.3323
lclavicle 3.01656e-014 6.55989e-015
lhumerus -20.7583 -23.761 88.5024
lradius 40.3384
lwrist -12.8168
lhand -33.21 -24.9107
lfingers 7.12502
lthumb -6.41695 4.97205
rfemur -23.0312 1.85092 22.6572
rtibia 37.9767
rfoot -19.6506 -3.37636
rtoes -31.4881
lfemur -13.9088 -7.40527 -19.7041
ltibia 27.8035
lfoot -25.5675 1.40399
ltoes -60.2463
